# xmcd CD database file
#
# Track frame offsets:
#	175
#	12790
#	32977
#	46507
#	57510
#	69700
#	82400
#	95412
#	116357
#	130685
#	147940
#
# Disc length: 2198 seconds
#
# Revision: 4
# Processed by: cddbd v1.5.2PL0 Copyright (c) Steve Scherf et al.
# Submitted via: CDex 1.51
#
DISCID=9408940b
DTITLE=Nanci Griffith - The Last of the True Believers
DYEAR=1986
DGENRE=Country
TTITLE0=Lookin' for the Time (Workin' Girl)
TTITLE1=Goin' Gone
TTITLE2=One of These Days
TTITLE3=Love's Found a Shoulder
TTITLE4=Fly by Night
TTITLE5=The Wing and the Wheel
TTITLE6=The Last of the True Believers
TTITLE7=Love at the Five and Dime
TTITLE8=St. Olav's Gate
TTITLE9=More than a Whisper
TTITLE10=Banks of the Pontchartrain
EXTD=YEAR: 1986
EXTT0=
EXTT1=
EXTT2=
EXTT3=
EXTT4=
EXTT5=
EXTT6=
EXTT7=
EXTT8=
EXTT9=
EXTT10=
PLAYORDER=
